# File created by Blade
# Date/Time:  Wed Jan 21 19:03:17 2015
#---------------------------------------------------------
:version 1.10
:name HOM
:units
  mass 1.0
  length 1.000000
  angle deg
:documentation
     Acclaim Skeleton File
:root
   axis xyz
   order TX TY TZ RX RY RZ
   position 0.000000 0.000000 0.000000
   orientation 0 0 0
:bonedata
   begin
      id 1
      name RightUpLeg_dum
      direction -1.000000 0.000000 0.000000
      length 3.693983
      axis 0.0 0.0 0.0 xyz
   end
   begin
      id 2
      name LeftUpLeg_dum
      direction 1.000000 0.000000 0.000000
      length 3.693983
      axis 0.0 0.0 0.0 xyz
   end
   begin
      id 3
      name Spine_dum
      direction 0.000000 1.000000 0.000000
      length 2.392956
      axis 0.0 0.0 0.0 xyz
   end
   begin
      id 4
      name RightUpLeg
      direction 0.000000 -1.000000 0.000000
      length 15.795667
      axis 0.0 0.0 0.0 xyz
      dof rx ry rz
   end
   begin
      id 5
      name RightLeg
      direction 0.000000 -1.000000 0.000000
      length 14.766989
      axis 0.0 0.0 0.0 xyz
      dof rx ry rz
   end
   begin
      id 6
      name RightFoot
      direction 0.000000 -0.258819 0.965926
      length 4.962790
      axis 15.0 0.0 0.0 xyz
      dof rx ry rz
   end
   begin
      id 7
      name RightToeBase
      direction 0.000000 0.000000 1.000000
      length 2.952750
      axis 0.0 0.0 0.0 xyz
      dof rx ry rz
   end
   begin
      id 8
      name LeftUpLeg
      direction 0.000000 -1.000000 0.000000
      length 15.795667
      axis 0.0 0.0 0.0 xyz
      dof rx ry rz
   end
   begin
      id 9
      name LeftLeg
      direction 0.000000 -1.000000 0.000000
      length 14.766989
      axis 0.0 0.0 0.0 xyz
      dof rx ry rz
   end
   begin
      id 10
      name LeftFoot
      direction 0.000000 -0.258819 0.965926
      length 4.962790
      axis 15.0 0.0 0.0 xyz
      dof rx ry rz
   end
   begin
      id 11
      name LeftToeBase
      direction 0.000000 0.000000 1.000000
      length 2.952750
      axis 0.0 0.0 0.0 xyz
      dof rx ry rz
   end
   begin
      id 12
      name Spine
      direction 0.000000 1.000000 0.000000
      length 0.000000
      axis 0.0 0.0 0.0 xyz
      dof rx ry rz
   end
   begin
      id 13
      name Spine_dum1
      direction 0.000000 1.000000 0.000000
      length 13.207411
      axis 0.0 0.0 0.0 xyz
   end
   begin
      id 14
      name Spine_dum2
      direction 0.000000 1.000000 0.000000
      length 13.207411
      axis 0.0 0.0 0.0 xyz
   end
   begin
      id 15
      name Spine_dum3
      direction 0.000000 1.000000 0.000000
      length 19.250100
      axis 0.0 0.0 0.0 xyz
   end
   begin
      id 16
      name RightShoulder
      direction -1.000000 0.000000 0.000000
      length 8.140465
      axis 0.0 0.0 90.0 xyz
      dof rx ry rz
   end
   begin
      id 17
      name RightArm
      direction -1.000000 0.000000 0.000000
      length 10.649840
      axis 0.0 0.0 90.0 xyz
      dof rx ry rz
   end
   begin
      id 18
      name RightForeArm
      direction -1.000000 0.000000 0.000000
      length 8.304624
      axis 0.0 0.0 90.0 xyz
      dof ry rz rx
   end
   begin
      id 19
      name RightHand
      direction -1.000000 0.000000 0.000000
      length 0.000000
      axis 0.0 0.0 90.0 xyz
      dof rx ry rz
   end
   begin
      id 20
      name RightHand_dum1
      direction -1.000000 0.000000 0.000000
      length 3.937000
      axis 0.0 0.0 90.0 xyz
   end
   begin
      id 21
      name RightHand_dum2
      direction 0.000000 0.000000 0.000000
      length 0.000000
      axis 0.0 0.0 90.0 xyz
   end
   begin
      id 22
      name RightHandThumb1
      direction 0.000000 0.000000 1.000000
      length 3.937000
      axis 0.0 0.0 90.0 xyz
      dof rx rz ry
   end
   begin
      id 23
      name LeftShoulder
      direction 1.000000 0.000000 0.000000
      length 8.140465
      axis 0.0 0.0 -90.0 xyz
      dof rx ry rz
   end
   begin
      id 24
      name LeftArm
      direction 1.000000 0.000000 0.000000
      length 10.649840
      axis 0.0 0.0 -90.0 xyz
      dof rx ry rz
   end
   begin
      id 25
      name LeftForeArm
      direction 1.000000 0.000000 0.000000
      length 8.304624
      axis 0.0 0.0 -90.0 xyz
      dof ry rz rx
   end
   begin
      id 26
      name LeftHand
      direction 1.000000 0.000000 0.000000
      length 0.000000
      axis 0.0 0.0 -90.0 xyz
      dof rx ry rz
   end
   begin
      id 27
      name LeftHand_dum1
      direction 1.000000 0.000000 0.000000
      length 3.937000
      axis 0.0 0.0 -90.0 xyz
   end
   begin
      id 28
      name LeftHand_dum2
      direction 0.000000 0.000000 0.000000
      length 0.000000
      axis 0.0 0.0 -90.0 xyz
   end
   begin
      id 29
      name LeftHandThumb1
      direction 0.000000 0.000000 1.000000
      length 3.937000
      axis 0.0 0.0 -90.0 xyz
      dof rx rz ry
   end
   begin
      id 30
      name Head
      direction 0.000000 1.000000 0.000000
      length 4.527550
      axis 0.0 0.0 0.0 xyz
      dof rx ry rz
   end
:hierarchy
   begin
      root RightUpLeg_dum LeftUpLeg_dum Spine_dum
      RightUpLeg_dum RightUpLeg
      LeftUpLeg_dum LeftUpLeg
      Spine_dum Spine
      RightUpLeg RightLeg
      RightLeg RightFoot
      RightFoot RightToeBase
      LeftUpLeg LeftLeg
      LeftLeg LeftFoot
      LeftFoot LeftToeBase
      Spine Spine_dum1 Spine_dum2 Spine_dum3
      Spine_dum1 RightShoulder
      Spine_dum2 LeftShoulder
      Spine_dum3 Head
      RightShoulder RightArm
      RightArm RightForeArm
      RightForeArm RightHand
      RightHand RightHand_dum1 RightHand_dum2
      RightHand_dum2 RightHandThumb1
      LeftShoulder LeftArm
      LeftArm LeftForeArm
      LeftForeArm LeftHand
      LeftHand LeftHand_dum1 LeftHand_dum2
      LeftHand_dum2 LeftHandThumb1
   end

# File created by Blade
# Date/Time:  Wed Jan 21 19:03:07 2015
# Frame Rate: 120.000 fps
#------------------------------------------------------
:FULLY-SPECIFIED
:DEGREES
1437
root -4.165677 29.599811 -4.994087 119.775192 -9.908616 5.748283
RightUpLeg -118.856265 -21.724059 26.380469
RightLeg -14.420076 -0.000000 0.000000
RightFoot 4.490343 2.596184 46.666455
RightToeBase 21.604156 -0.000000 -0.000000
LeftUpLeg -107.918250 9.281970 -25.512439
LeftLeg -10.457074 -0.000000 0.000000
LeftFoot 2.739368 -9.644917 -27.002555
LeftToeBase 5.139991 -0.000000 -0.000000
Spine 61.475614 -15.588547 3.142215
RightShoulder 7.096920 29.938946 -54.559387
RightArm 38.357264 29.071312 83.658126
RightForeArm 14.273442 -0.000000 105.510809
RightHand 23.009989 0.000000 -53.125404
RightHandThumb1 -24.326973 -0.000000 -32.862282
LeftShoulder 22.584689 39.483471 14.421802
LeftArm 165.709698 -63.592372 -129.985672
LeftForeArm -5.284353 0.000000 90.209045
LeftHand -43.854251 -0.000000 72.998005
LeftHandThumb1 -26.253704 0.000000 33.147579
Head 22.396070 1.408991 -36.759059
1438
root -4.177134 29.587977 -4.980644 119.818650 -9.907274 5.672954
RightUpLeg -118.831597 -21.609673 26.397066
RightLeg -14.456344 -0.000000 0.000000
RightFoot 4.458883 2.652090 46.667704
RightToeBase 21.733089 -0.000000 -0.000000
LeftUpLeg -107.917781 9.393774 -25.516513
LeftLeg -10.513098 -0.000000 0.000000
LeftFoot 2.654811 -9.644613 -27.040526
LeftToeBase 5.243488 -0.000000 -0.000000
Spine 61.436421 -15.408183 3.051202
RightShoulder 7.266023 29.780511 -54.257380
RightArm 38.395741 29.144472 83.480801
RightForeArm 14.317528 -0.000000 105.551266
RightHand 22.950385 -0.000000 -53.159562
RightHandThumb1 -24.326973 -0.000000 -32.862282
LeftShoulder 22.823375 39.563780 14.631565
LeftArm 166.109057 -63.668960 -130.340486
LeftForeArm -5.296726 -0.000000 90.286944
LeftHand -43.907280 -0.000000 73.057842
LeftHandThumb1 -26.253704 0.000000 33.147579
Head 23.263643 1.635837 -36.463074
1439
root -4.183371 29.577743 -4.965866 119.833197 -9.907567 5.633133
RightUpLeg -118.803342 -21.542378 26.444289
RightLeg -14.503935 -0.000000 0.000000
RightFoot 4.482291 2.720935 46.768020
RightToeBase 21.873097 -0.000000 -0.000000
LeftUpLeg -107.885329 9.453569 -25.535625
LeftLeg -10.570846 -0.000000 0.000000
LeftFoot 2.595209 -9.648849 -27.062014
LeftToeBase 5.248774 -0.000000 -0.000000
Spine 61.481564 -15.333027 2.995058
RightShoulder 7.240512 29.684611 -54.284086
RightArm 38.384334 29.180057 83.502661
RightForeArm 14.337123 0.000000 105.616742
RightHand 22.945616 -0.000000 -53.201914
RightHandThumb1 -24.326973 -0.000000 -32.862282
LeftShoulder 22.825916 39.575962 14.645494
LeftArm 166.208721 -63.657998 -130.376861
LeftForeArm -5.268436 -0.000000 90.341457
LeftHand -43.940425 -0.000000 73.051968
LeftHandThumb1 -26.253704 0.000000 33.147579
Head 23.793245 1.820647 -36.175922
1440
root -4.190476 29.568400 -4.954196 119.846928 -9.907595 5.580643
RightUpLeg -118.761501 -21.475243 26.462758
RightLeg -14.561609 -0.000000 0.000000
RightFoot 4.518278 2.744124 46.735770
RightToeBase 21.919705 -0.000000 -0.000000
LeftUpLeg -107.867775 9.529686 -25.557845
LeftLeg -10.606887 -0.000000 0.000000
LeftFoot 2.538280 -9.679365 -27.086399
LeftToeBase 5.265686 -0.000000 -0.000000
Spine 61.513946 -15.239355 2.931203
RightShoulder 7.227761 29.597841 -54.247223
RightArm 38.382970 29.187453 83.484122
RightForeArm 14.338251 -0.000000 105.655847
RightHand 22.913094 -0.000000 -53.161217
RightHandThumb1 -24.326973 -0.000000 -32.862282
LeftShoulder 22.852403 39.604565 14.701484
LeftArm 166.306554 -63.634094 -130.437866
LeftForeArm -5.230326 -0.000000 90.429590
LeftHand -44.021862 0.000000 73.071156
LeftHandThumb1 -26.253704 0.000000 33.147579
Head 24.291908 2.047545 -35.924345
1441
root -4.196077 29.560640 -4.945764 119.862105 -9.913939 5.541750
RightUpLeg -118.737248 -21.432822 26.483073
RightLeg -14.619494 -0.000000 0.000000
RightFoot 4.562051 2.823370 46.759548
RightToeBase 22.098002 -0.000000 -0.000000
LeftUpLeg -107.864575 9.581405 -25.578229
LeftLeg -10.618270 -0.000000 0.000000
LeftFoot 2.437163 -9.686148 -27.115687
LeftToeBase 5.405610 -0.000000 -0.000000
Spine 61.523072 -15.163283 2.868156
RightShoulder 7.233117 29.578596 -54.174211
RightArm 38.335416 29.173611 83.444206
RightForeArm 14.297622 0.000000 105.657378
RightHand 22.884698 -0.000000 -53.222189
RightHandThumb1 -24.326973 -0.000000 -32.862282
LeftShoulder 22.854336 39.612065 14.747624
LeftArm 166.254580 -63.724087 -130.354596
LeftForeArm -5.639503 -0.000000 90.493048
LeftHand -43.268397 0.000000 73.212875
LeftHandThumb1 -26.253704 0.000000 33.147579
Head 24.683077 2.244979 -35.705393
1442
root -4.201478 29.553734 -4.941033 119.897064 -9.922868 5.489158
RightUpLeg -118.746533 -21.368021 26.507208
RightLeg -14.650377 -0.000000 0.000000
RightFoot 4.615663 2.889077 46.671188
RightToeBase 22.178099 -0.000000 -0.000000
LeftUpLeg -107.895308 9.637905 -25.593962
LeftLeg -10.611039 -0.000000 0.000000
LeftFoot 2.335026 -9.685127 -27.121821
LeftToeBase 5.458589 -0.000000 -0.000000
Spine 61.462699 -15.053845 2.786249
RightShoulder 7.358936 29.533878 -53.927915
RightArm 38.310715 29.167174 83.277190
RightForeArm 14.314550 -0.000000 105.620287
RightHand 22.918284 -0.000000 -53.259297
RightHandThumb1 -24.326973 -0.000000 -32.862282
LeftShoulder 22.933460 39.642930 14.912716
LeftArm 166.183208 -63.634560 -130.346800
LeftForeArm -5.231436 -0.000000 90.631014
LeftHand -43.842050 -0.000000 73.089597
LeftHandThumb1 -26.253704 0.000000 33.147579
Head 25.158839 2.429137 -35.481318
1443
root -4.200967 29.546542 -4.934560 119.918150 -9.925057 5.470560
RightUpLeg -118.750122 -21.362783 26.539424
RightLeg -14.698105 -0.000000 0.000000
RightFoot 4.685409 2.957850 46.616829
RightToeBase 22.357095 -0.000000 -0.000000
LeftUpLeg -107.925773 9.636507 -25.641913
LeftLeg -10.576739 -0.000000 0.000000
LeftFoot 2.226815 -9.759512 -27.068345
LeftToeBase 5.532344 -0.000000 -0.000000
Spine 61.480159 -15.048870 2.767666
RightShoulder 7.245093 29.643556 -53.992976
RightArm 38.200682 29.065367 83.317227
RightForeArm 14.232486 0.000000 105.624969
RightHand 22.938415 -0.000000 -53.195422
RightHandThumb1 -24.326973 -0.000000 -32.862282
LeftShoulder 22.821135 39.618190 14.827515
LeftArm 166.062988 -63.629562 -130.197035
LeftForeArm -5.298160 -0.000000 90.712787
LeftHand -43.818103 -0.000000 73.095007
LeftHandThumb1 -26.253704 0.000000 33.147579
Head 25.296716 2.569824 -35.406729
1444
root -4.200276 29.540256 -4.932244 119.941106 -9.926618 5.447256
RightUpLeg -118.766918 -21.355360 26.561530
RightLeg -14.725517 -0.000000 0.000000
RightFoot 4.731529 3.018582 46.490464
RightToeBase 22.423443 -0.000000 -0.000000
LeftUpLeg -107.957655 9.661566 -25.635889
LeftLeg -10.543657 -0.000000 0.000000
LeftFoot 2.091991 -9.774338 -26.986283
LeftToeBase 5.515529 -0.000000 -0.000000
Spine 61.450870 -15.020663 2.717129
RightShoulder 7.235644 29.726761 -53.885582
RightArm 38.137983 28.943466 83.230644
RightForeArm 14.253920 -0.000000 105.584039
RightHand 22.906971 -0.000000 -53.253590
RightHandThumb1 -24.326973 -0.000000 -32.862282
LeftShoulder 22.769875 39.585836 14.812306
LeftArm 165.926097 -63.702251 -130.082814
LeftForeArm -5.380953 0.000000 90.832341
LeftHand -44.033869 -0.000000 73.263272
LeftHandThumb1 -26.253704 0.000000 33.147579
Head 25.528824 2.742648 -35.229984
1445
root -4.199391 29.533168 -4.933683 119.975139 -9.924848 5.413654
RightUpLeg -118.812518 -21.332312 26.592134
RightLeg -14.722284 -0.000000 0.000000
RightFoot 4.808708 3.147228 46.339962
RightToeBase 22.530582 -0.000000 -0.000000
LeftUpLeg -108.000078 9.707612 -25.593084
LeftLeg -10.512040 -0.000000 0.000000
LeftFoot 1.913301 -9.738111 -26.931242
LeftToeBase 5.624739 -0.000000 -0.000000
Spine 61.378201 -14.965078 2.672056
RightShoulder 7.271009 29.796536 -53.689267
RightArm 38.059073 28.811711 83.082996
RightForeArm 14.273310 -0.000000 105.530986
RightHand 22.919534 -0.000000 -53.186177
RightHandThumb1 -24.326973 -0.000000 -32.862282
LeftShoulder 22.796613 39.582577 14.854014
LeftArm 165.868707 -63.795793 -130.068689
LeftForeArm -5.497848 -0.000000 90.954984
LeftHand -44.080038 -0.000000 73.365308
LeftHandThumb1 -26.253704 0.000000 33.147579
Head 25.828314 2.908294 -35.122196
1446
root -4.194800 29.527648 -4.937961 119.994059 -9.902748 5.398742
RightUpLeg -118.859202 -21.334925 26.641789
RightLeg -14.710301 -0.000000 0.000000
RightFoot 4.918797 3.278598 46.185840
RightToeBase 22.560325 -0.000000 -0.000000
LeftUpLeg -108.056251 9.731955 -25.560304
LeftLeg -10.457883 -0.000000 0.000000
LeftFoot 1.762469 -9.756948 -26.848060
LeftToeBase 5.720896 -0.000000 -0.000000
Spine 61.306868 -14.943993 2.653675
RightShoulder 7.312055 29.837649 -53.566081
RightArm 37.986999 28.709999 82.986124
RightForeArm 14.326128 -0.000000 105.487832
RightHand 22.978774 -0.000000 -53.100999
RightHandThumb1 -24.326973 -0.000000 -32.862282
LeftShoulder 22.797026 39.559860 14.854134
LeftArm 165.765521 -63.924133 -130.031396
LeftForeArm -5.600024 -0.000000 91.060398
LeftHand -44.059521 -0.000000 73.538664
LeftHandThumb1 -26.253704 0.000000 33.147579
Head 26.034184 3.031825 -34.961966
